<?xml version="1.0" standalone="no"?><!DOCTYPE svg PUBLIC "-//W3C//DTD SVG 1.1//EN" "http://www.w3.org/Graphics/SVG/1.1/DTD/svg11.dtd"><svg t="1503226452630" class="icon" style="" viewBox="0 0 1024 1024" version="1.1" xmlns="http://www.w3.org/2000/svg" p-id="2307" xmlns:xlink="http://www.w3.org/1999/xlink" width="200" height="200"><defs><style type="text/css"></style></defs><path d="M907.636364 232.727273H535.272727c-11.636364 0-23.272727-9.309091-23.272727-23.272728 0-11.636364 9.309091-23.272727 23.272727-23.272727h372.363637c11.636364 0 23.272727 9.309091 23.272727 23.272727s-11.636364 23.272727-23.272727 23.272728zM907.636364 512H535.272727c-11.636364 0-23.272727-9.309091-23.272727-23.272727 0-11.636364 9.309091-23.272727 23.272727-23.272728h372.363637c11.636364 0 23.272727 9.309091 23.272727 23.272728s-11.636364 23.272727-23.272727 23.272727zM907.636364 791.272727H535.272727c-11.636364 0-23.272727-11.636364-23.272727-23.272727s9.309091-23.272727 23.272727-23.272727h372.363637c11.636364 0 23.272727 11.636364 23.272727 23.272727s-11.636364 23.272727-23.272727 23.272727zM209.454545 93.090909C144.290909 93.090909 93.090909 144.290909 93.090909 209.454545s51.2 116.363636 116.363636 116.363637 116.363636-51.2 116.363637-116.363637-51.2-116.363636-116.363637-116.363636z m0 186.181818c-39.563636 0-69.818182-30.254545-69.818181-69.818182s30.254545-69.818182 69.818181-69.818181 69.818182 30.254545 69.818182 69.818181-30.254545 69.818182-69.818182 69.818182zM209.454545 372.363636c-65.163636 0-116.363636 51.2-116.363636 116.363637s51.2 116.363636 116.363636 116.363636 116.363636-51.2 116.363637-116.363636-51.2-116.363636-116.363637-116.363637z m0 186.181819c-39.563636 0-69.818182-30.254545-69.818181-69.818182s30.254545-69.818182 69.818181-69.818182 69.818182 30.254545 69.818182 69.818182-30.254545 69.818182-69.818182 69.818182zM209.454545 651.636364c-65.163636 0-116.363636 51.2-116.363636 116.363636s51.2 116.363636 116.363636 116.363636 116.363636-51.2 116.363637-116.363636-51.2-116.363636-116.363637-116.363636z m0 186.181818c-39.563636 0-69.818182-30.254545-69.818181-69.818182s30.254545-69.818182 69.818181-69.818182 69.818182 30.254545 69.818182 69.818182-30.254545 69.818182-69.818182 69.818182z" p-id="2308" fill="#8a8a8a"></path></svg>