<?xml version="1.0" standalone="no"?><!DOCTYPE svg PUBLIC "-//W3C//DTD SVG 1.1//EN" "http://www.w3.org/Graphics/SVG/1.1/DTD/svg11.dtd"><svg t="1502356912509" class="icon" style="" viewBox="0 0 1024 1024" version="1.1" xmlns="http://www.w3.org/2000/svg" p-id="5444" xmlns:xlink="http://www.w3.org/1999/xlink" width="200" height="200"><defs><style type="text/css"></style></defs><path d="M544.142 838.954v-391.239h-64.286v391.239l-89.773-89.775-45.454 45.452 167.369 167.369 167.369-167.369-45.454-45.452z" p-id="5445" fill="#ffffff"></path><path d="M767.039 287.691c-15.538-127.129-123.705-225.691-255.039-225.691s-239.501 98.563-255.039 225.691c-108.828 7.22-194.961 97.559-194.961 208.238 0 115.388 93.54 208.928 208.928 208.928h112.5v-64.286h-112.5c-79.761 0-144.642-64.882-144.642-144.642 0-75.773 59.264-139.087 134.944-144.078l53.079-3.547 6.465-52.828c11.803-96.461 93.981-169.191 191.227-169.191s179.423 72.729 191.225 169.189l6.465 52.828 53.078 3.547c75.682 4.992 134.946 68.305 134.946 144.079 0 79.761-64.882 144.642-144.642 144.642h-112.5v64.286h112.5c115.388 0 208.928-93.54 208.928-208.928 0-110.679-86.133-201.018-194.961-208.238z" p-id="5446" fill="#ffffff"></path></svg>