<?xml version="1.0" standalone="no"?><!DOCTYPE svg PUBLIC "-//W3C//DTD SVG 1.1//EN" "http://www.w3.org/Graphics/SVG/1.1/DTD/svg11.dtd"><svg t="1502357043230" class="icon" style="" viewBox="0 0 1024 1024" version="1.1" xmlns="http://www.w3.org/2000/svg" p-id="6443" xmlns:xlink="http://www.w3.org/1999/xlink" width="200" height="200"><defs><style type="text/css"></style></defs><path d="M721.785957 885.753379c-1.447978 0-2.907213-0.045025-4.379751-0.135076-11.918447-0.731664-22.61916-4.282536-28.854165-7.446599L509.905292 790.322913l-179.902346 87.899956c-13.761422 6.888897-49.327452 13.997805-72.54627-6.815219-19.673062-15.111163-29.602202-40.421618-25.372877-65.165162l0.12689-0.691755 36.84107-189.357695L127.839597 485.698984l-0.272199-0.26299c-18.451234-17.913998-25.210172-45.239344-17.232476-69.642127 7.806803-24.238031 29.005614-42.297338 54.157457-46.185902l196.543352-35.733852 87.99717-177.191608c11.668761-23.327288 34.995025-37.769208 60.914348-37.769208 25.701358 0 49.574069 14.853289 60.854996 37.849026l87.952144 177.00946 196.534142 34.530444c25.518187 3.892657 46.281069 21.551852 54.271044 46.201252 7.986905 24.432459 1.264806 51.740408-17.137309 69.598124l-0.442068 0.420579L750.790548 616.182804l35.817764 189.965539c4.288676 24.626887-5.622044 49.951669-25.327852 65.190745C750.912321 880.721783 737.102804 885.753379 721.785957 885.753379zM716.010417 823.25393c1.478677 0.577145 3.89061 1.040702 5.511527 1.106194l0.023536-0.023536 2.028193-1.458211c1.89414-1.360997 2.915399-3.78828 2.567475-6.075369l-41.950438-222.466768 165.598572-154.423045c1.589195-1.63729 2.142803-4.105504 1.408069-6.341429l-0.042979-0.13303c-0.774643-2.394537-2.761903-4.100388-5.185093-4.451382l-0.913812-0.146333-227.480968-39.96727-101.893668-205.067492c-1.036609-2.12336-3.28686-3.495614-5.733585-3.495614-2.518357 0-4.803399 1.440815-5.963829 3.759627l-101.659331 204.701149-228.398874 41.505299c-2.39556 0.346901-4.418636 2.055822-5.15337 4.353145l-0.075725 0.234337c-0.723477 2.200108-0.140193 4.672416 1.483794 6.361895l165.673274 153.09991L292.571429 816.795844c-0.332575 2.38021 0.599657 4.721535 2.408863 6.010901l1.400906 0.998747c2.042519 0.067538 5.180999-0.354064 6.970762-0.895393l206.638267-100.964506L716.010417 823.25393z" p-id="6444" fill="#8a8a8a"></path></svg>