<?xml version="1.0" standalone="no"?><!DOCTYPE svg PUBLIC "-//W3C//DTD SVG 1.1//EN" "http://www.w3.org/Graphics/SVG/1.1/DTD/svg11.dtd"><svg t="1502373969359" class="icon" style="" viewBox="0 0 1024 1024" version="1.1" xmlns="http://www.w3.org/2000/svg" p-id="4063" xmlns:xlink="http://www.w3.org/1999/xlink" width="200" height="200"><defs><style type="text/css"></style></defs><path d="M903.734404 456.037431 344.113827 456.037431c-30.90487 0-55.962569 25.056676-55.962569 55.962569 0 30.877241 25.056676 55.962569 55.962569 55.962569l559.620577 0c30.9325 0 55.962569-25.085328 55.962569-55.962569C959.69595 481.09513 934.665881 456.037431 903.734404 456.037431zM120.265596 456.037431c-30.90487 0-55.962569 25.056676-55.962569 55.962569 0 30.877241 25.056676 55.962569 55.962569 55.962569s55.962569-25.085328 55.962569-55.962569C176.227142 481.09513 151.170466 456.037431 120.265596 456.037431zM120.265596 176.227654c-30.90487 0-55.962569 25.056676-55.962569 55.962569s25.056676 55.962569 55.962569 55.962569 55.962569-25.056676 55.962569-55.962569S151.170466 176.227654 120.265596 176.227654zM344.113827 288.151769l559.620577 0c30.9325 0 55.962569-25.056676 55.962569-55.962569s-25.03007-55.962569-55.962569-55.962569L344.113827 176.22663c-30.90487 0-55.962569 25.056676-55.962569 55.962569S313.208956 288.151769 344.113827 288.151769zM903.734404 735.848231 344.113827 735.848231c-30.90487 0-55.962569 25.085328-55.962569 55.962569s25.056676 55.962569 55.962569 55.962569l559.620577 0c30.9325 0 55.962569-25.085328 55.962569-55.962569S934.665881 735.848231 903.734404 735.848231zM120.265596 735.848231c-30.90487 0-55.962569 25.085328-55.962569 55.962569s25.056676 55.962569 55.962569 55.962569 55.962569-25.085328 55.962569-55.962569S151.170466 735.848231 120.265596 735.848231z" p-id="4064" fill="#8a8a8a"></path></svg>