<?xml version="1.0" standalone="no"?><!DOCTYPE svg PUBLIC "-//W3C//DTD SVG 1.1//EN" "http://www.w3.org/Graphics/SVG/1.1/DTD/svg11.dtd"><svg t="1502948328204" class="icon" style="" viewBox="0 0 1024 1024" version="1.1" xmlns="http://www.w3.org/2000/svg" p-id="24966" xmlns:xlink="http://www.w3.org/1999/xlink" width="200" height="200"><defs><style type="text/css"></style></defs><path d="M895.784 32c-17.99 0-31.482 14.992-31.482 31.482v523.207c-71.96-52.471-187.395-52.471-292.336 7.496-128.928 74.958-185.896 211.381-131.926 310.326 55.469 101.943 205.385 115.435 334.313 40.477 98.945-58.467 157.412-152.914 152.914-238.366 0-1.499 0-1.499 0-2.998v-640.141c0-16.491-13.493-31.482-31.482-31.482zM753.364 892.517c-95.947 56.968-212.88 55.469-257.856-11.993-44.975-68.962 1.499-178.4 95.947-235.368 95.947-56.968 217.378-55.469 262.353 13.492 43.476 67.463-5.996 175.402-100.444 233.869z" p-id="24967" fill="#8a8a8a"></path><path d="M128.216 319.839h575.677c17.99 0 31.482-14.992 31.482-31.482 0-17.99-14.992-31.482-31.482-31.482h-575.677c-17.99 0-31.482 14.992-31.482 31.482 0 17.99 13.493 31.482 31.482 31.482z" p-id="24968" fill="#8a8a8a"></path><path d="M128.216 127.947h575.677c17.99 0 31.482-14.992 31.482-31.482 0-17.99-14.992-31.482-31.482-31.482h-575.677c-17.99 0-31.482 14.992-31.482 31.482 0 16.491 13.493 31.482 31.482 31.482z" p-id="24969" fill="#8a8a8a"></path><path d="M128.216 511.731h352.302c17.99 0 31.482-14.992 31.482-31.482 0-17.99-14.992-31.482-31.482-31.482h-352.302c-17.99 0-31.482 14.992-31.482 31.482 0 17.99 13.493 31.482 31.482 31.482z" p-id="24970" fill="#8a8a8a"></path><path d="M320.108 640.658h-191.892c-17.99 0-31.482 14.992-31.482 31.482 0 17.99 14.992 31.482 31.482 31.482h191.892c17.99 0 31.482-14.992 31.482-31.482 0-17.99-13.492-31.482-31.482-31.482z" p-id="24971" fill="#8a8a8a"></path></svg>