<?xml version="1.0" standalone="no"?><!DOCTYPE svg PUBLIC "-//W3C//DTD SVG 1.1//EN" "http://www.w3.org/Graphics/SVG/1.1/DTD/svg11.dtd"><svg t="1502374272475" class="icon" style="" viewBox="0 0 1024 1024" version="1.1" xmlns="http://www.w3.org/2000/svg" p-id="3180" xmlns:xlink="http://www.w3.org/1999/xlink" width="200" height="200"><defs><style type="text/css"></style></defs><path d="M512 64.027c-253.853 0-459.466 205.606-459.466 459.466s205.606 459.466 459.466 459.466 459.466-205.606 459.466-459.466-205.606-459.466-459.466-459.466zM512 948.492c-234.329 0-424.993-190.679-424.993-424.993s190.679-424.993 424.993-424.993 424.993 190.679 424.993 424.993-190.679 424.993-424.993 424.993z" p-id="3181" fill="#ffffff"></path><path d="M392.548 678.564h-2.302c-9.187 0-16.080-6.885-16.080-16.080v-276.829c0-9.187 6.885-16.080 16.080-16.080h2.302c9.187 0 16.080 6.885 16.080 16.080v276.829c1.142 8.045-6.885 16.080-16.080 16.080z" p-id="3182" fill="#ffffff"></path><path d="M405.168 537.281l219.397 126.35c10.338 5.749 24.113-1.142 24.113-13.77v-252.692c0-12.637-13.77-20.667-24.113-13.77l-219.397 126.35c-10.338 5.749-10.338 21.828 0 27.573zM610.783 619.977l-159.67-91.902c-3.443-2.302-3.443-6.885 0-9.187l159.67-91.902c3.443-2.302 8.045 0 8.045 4.587v183.771c0 4.587-4.587 6.885-8.045 4.587z" p-id="3183" fill="#ffffff"></path></svg>