<?xml version="1.0" standalone="no"?><!DOCTYPE svg PUBLIC "-//W3C//DTD SVG 1.1//EN" "http://www.w3.org/Graphics/SVG/1.1/DTD/svg11.dtd"><svg t="1502948131376" class="icon" style="" viewBox="0 0 1024 1024" version="1.1" xmlns="http://www.w3.org/2000/svg" p-id="22591" xmlns:xlink="http://www.w3.org/1999/xlink" width="200" height="200"><defs><style type="text/css"></style></defs><path d="M963.2 821.12L819.584 635.136c51.968-51.072 84.224-122.24 84.224-200.96 0-155.776-126.208-281.856-281.856-281.856s-281.984 126.208-281.984 281.856 126.208 281.856 281.856 281.856c53.504 0 103.552-14.848 146.176-40.704l143.36 185.6c6.4 8.448 16.128 12.672 25.984 12.672 6.912 0 14.08-2.304 19.968-6.912 14.208-10.624 16.896-31.232 5.888-45.568zM468.736 587.264c-40.832-40.832-63.36-95.232-63.36-152.96s22.528-112.128 63.36-152.96c40.832-40.832 95.232-63.36 152.96-63.36s112.128 22.528 152.96 63.36c40.832 40.832 63.36 95.232 63.36 152.96s-22.528 112.128-63.36 152.96c-40.832 40.832-95.232 63.36-152.96 63.36s-112-22.4-152.96-63.36zM51.328 218.752h262.4v65.28h-262.4zM51.2 480.896h197.12v65.28H51.2zM51.328 743.04h393.728v65.28H51.328z" p-id="22592" fill="#ffffff"></path></svg>