<?xml version="1.0" standalone="no"?><!DOCTYPE svg PUBLIC "-//W3C//DTD SVG 1.1//EN" "http://www.w3.org/Graphics/SVG/1.1/DTD/svg11.dtd"><svg t="1502948093102" class="icon" style="" viewBox="0 0 1024 1024" version="1.1" xmlns="http://www.w3.org/2000/svg" p-id="22323" xmlns:xlink="http://www.w3.org/1999/xlink" width="200" height="200"><defs><style type="text/css"></style></defs><path d="M954.2 817.3L814 635.7c50.7-49.9 82.2-119.4 82.2-196.2 0-152.1-123.3-275.3-275.3-275.3S345.5 287.5 345.5 439.5s123.3 275.3 275.3 275.3c52.2 0 101.1-14.5 142.7-39.8l140 181.3c6.3 8.2 15.8 12.4 25.4 12.4 6.8 0 13.7-2.2 19.5-6.7 14-10.6 16.6-30.7 5.8-44.7zM471.4 588.9c-39.9-39.9-61.9-93-61.9-149.4s22-109.5 61.9-149.4 93-61.9 149.4-61.9 109.5 22 149.4 61.9c39.9 39.9 61.9 93 61.9 149.4s-22 109.5-61.9 149.4c-39.9 39.9-93 61.9-149.4 61.9s-109.5-21.9-149.4-61.9zM95.6 549h128.5c17.7 0 32-14.3 32-32s-14.3-32-32-32H95.6c-17.7 0-32 14.3-32 32 0 17.6 14.3 32 32 32zM416.1 741H95.6c-17.7 0-32 14.3-32 32s14.3 32 32 32h320.5c17.7 0 32-14.3 32-32s-14.3-32-32-32zM95.6 293h192.5c17.7 0 32-14.3 32-32s-14.3-32-32-32H95.6c-17.7 0-32 14.3-32 32s14.3 32 32 32z" fill="#8a8a8a" p-id="22324"></path></svg>