<?xml version="1.0" standalone="no"?><!DOCTYPE svg PUBLIC "-//W3C//DTD SVG 1.1//EN" "http://www.w3.org/Graphics/SVG/1.1/DTD/svg11.dtd"><svg t="1502970099395" class="icon" style="" viewBox="0 0 1024 1024" version="1.1" xmlns="http://www.w3.org/2000/svg" p-id="4825" xmlns:xlink="http://www.w3.org/1999/xlink" width="200" height="200"><defs><style type="text/css"></style></defs><path d="M376.745527 260.111133l214.650755 0 7.715729-15.344476c2.295276-1.216711 4.293793-3.059686 5.687536-5.477758l14.309914-24.812105c3.952009-6.850012 1.607614-15.610536-5.237281-19.566638L390.806777 65.99097c-6.844895-3.956102-15.595186-1.607614-19.547195 5.242398l-14.309914 24.810059c-3.948939 6.851035-1.604544 15.612583 5.240351 19.567661l153.264663 88.579431L371.922684 204.190519c-169.860642 0-307.561841 137.700175-307.561841 307.561841 0 149.721976 106.990756 274.433326 248.681826 301.907051l26.598798-52.896744c-124.056434-17.641799-219.361033-122.398678-219.361033-249.010307C120.281457 372.775098 235.103576 260.111133 376.745527 260.111133z" p-id="4826" fill="#8a8a8a"></path><path d="M959.087595 511.753383c0-131.909286-83.049484-244.405429-199.705368-288.098557l-25.786293 51.280944c98.872868 34.932604 169.57207 127.767965 169.57207 236.817614 0 138.977261-114.823142 251.642251-256.464069 251.642251L487.97277 763.395634l-8.998955 17.896602c-1.320065 1.072425-2.479471 2.387373-3.381004 3.949962l-14.309914 24.810059c-3.952009 6.851035-1.607614 15.612583 5.237281 19.567661l223.065402 128.919185c6.844895 3.956102 15.595186 1.607614 19.547195-5.243421l14.309914-24.810059c3.952009-6.850012 1.604544-15.610536-5.240351-19.566638l-155.037029-89.603761 88.360444 0C821.387419 819.314201 959.087595 681.615049 959.087595 511.753383z" p-id="4827" fill="#8a8a8a"></path></svg>