<?xml version="1.0" standalone="no"?><!DOCTYPE svg PUBLIC "-//W3C//DTD SVG 1.1//EN" "http://www.w3.org/Graphics/SVG/1.1/DTD/svg11.dtd"><svg t="1502470371463" class="icon" style="" viewBox="0 0 1024 1024" version="1.1" xmlns="http://www.w3.org/2000/svg" p-id="5707" xmlns:xlink="http://www.w3.org/1999/xlink" width="200" height="200"><defs><style type="text/css"></style></defs><path d="M512.01228 61.403488c124.184347 0 236.70812 50.41625 318.207295 131.907239 81.552387 81.56569 132.013663 194.249099 132.013663 318.692343 0 124.44836-50.461275 237.123582-132.013663 318.692343-81.499176 81.490989-194.022948 131.905192-318.207295 131.905192-124.20072 0-236.71119-50.414203-318.210365-131.905192C112.251573 749.127675 61.790298 636.452453 61.790298 512.004093c0-124.443243 50.461275-237.126652 132.011616-318.692343C275.30109 111.819738 387.810536 61.403488 512.01228 61.403488L512.01228 61.403488zM804.341185 220.157165C729.594807 145.418974 626.235764 99.172697 512.01228 99.172697S294.428729 145.418974 219.682351 220.157165c-74.676793 74.68498-120.878045 177.87927-120.878045 291.846928 0 113.972774 46.200228 217.158878 120.878045 291.843858 74.746378 74.738192 178.105421 120.984469 292.328905 120.984469s217.582527-46.246277 292.328905-120.984469c74.676793-74.68498 120.878045-177.871083 120.878045-291.843858C925.218206 398.036435 879.017978 294.842145 804.341185 220.157165z" p-id="5708" fill="#8a8a8a"></path><path d="M391.973346 343.801207l240.068657 0c26.507724 0 48.180326 21.670555 48.180326 48.161906l0 240.078891c0 26.499537-21.673625 48.172139-48.180326 48.172139L391.973346 680.214143c-26.494421 0-48.164976-21.673625-48.164976-48.172139L343.80837 391.963113C343.809393 365.471762 365.479949 343.801207 391.973346 343.801207z" p-id="5709" fill="#8a8a8a"></path></svg>